HIERARCHY
ROOT joint_Root
{
	OFFSET 0.0 0.0 0.0
	CHANNELS 6 Xposition Yposition Zposition Zrotation Xrotation Yrotation 
	JOINT Hips
	{
		OFFSET 4.5925 91.4895 -427.239
		CHANNELS 6 Xposition Yposition Zposition Zrotation Xrotation Yrotation 
		JOINT Spine
		{
			OFFSET 15.7357 0.0 0.0
			CHANNELS 6 Xposition Yposition Zposition Zrotation Xrotation Yrotation 
			JOINT Chest
			{
				OFFSET 8.98455 -0.406207 0.0
				CHANNELS 6 Xposition Yposition Zposition Zrotation Xrotation Yrotation 
				JOINT Neck
				{
					OFFSET 16.3773 0.0 0.0
					CHANNELS 6 Xposition Yposition Zposition Zrotation Xrotation Yrotation 
					JOINT Head
					{
						OFFSET 6.45672 0.0 0.0
						CHANNELS 6 Xposition Yposition Zposition Zrotation Xrotation Yrotation 
						End Site
						{
							OFFSET 0.0 0.0 0.0
						}
					}
				}
				JOINT Shoulder_L
				{
					OFFSET 12.9942 -0.242716 4.98039
					CHANNELS 6 Xposition Yposition Zposition Zrotation Xrotation Yrotation 
					JOINT UpperArm_L
					{
						OFFSET 5.34809 0.0 0.0
						CHANNELS 6 Xposition Yposition Zposition Zrotation Xrotation Yrotation 
						JOINT LowerArm_L
						{
							OFFSET 24.3286 1.87007e-05 0.0
							CHANNELS 6 Xposition Yposition Zposition Zrotation Xrotation Yrotation 
							JOINT Hand_L
							{
								OFFSET 22.2916 0.0 0.0
								CHANNELS 6 Xposition Yposition Zposition Zrotation Xrotation Yrotation 
								End Site
								{
									OFFSET 0.0 0.0 0.0
								}
							}
						}
					}
				}
				JOINT Shoulder_R
				{
					OFFSET 12.9945 -0.242716 -4.98039
					CHANNELS 6 Xposition Yposition Zposition Zrotation Xrotation Yrotation 
					JOINT UpperArm_R
					{
						OFFSET -5.34813 0.0 0.0
						CHANNELS 6 Xposition Yposition Zposition Zrotation Xrotation Yrotation 
						JOINT LowerArm_R
						{
							OFFSET -24.3289 0.000322201 0.0
							CHANNELS 6 Xposition Yposition Zposition Zrotation Xrotation Yrotation 
							JOINT Hand_R
							{
								OFFSET -22.2915 -0.000108084 0.0
								CHANNELS 6 Xposition Yposition Zposition Zrotation Xrotation Yrotation 
								End Site
								{
									OFFSET 0.0 0.0 0.0
								}
							}
						}
					}
				}
			}
		}
		JOINT UpperLeg_L
		{
			OFFSET -2.19248 -6.46944 0.0
			CHANNELS 6 Xposition Yposition Zposition Zrotation Xrotation Yrotation 
			JOINT LowerLeg_L
			{
				OFFSET 39.0811 0.0 -1.23785e-05
				CHANNELS 6 Xposition Yposition Zposition Zrotation Xrotation Yrotation 
				JOINT Foot_L
				{
					OFFSET 40.9854 0.0 -1.26872e-05
					CHANNELS 6 Xposition Yposition Zposition Zrotation Xrotation Yrotation 
					JOINT Toes_L
					{
						OFFSET 11.7543 0.0 0.0
						CHANNELS 6 Xposition Yposition Zposition Zrotation Xrotation Yrotation 
						End Site
						{
							OFFSET 0.0 0.0 0.0
						}
					}
				}
			}
		}
		JOINT UpperLeg_R
		{
			OFFSET -2.19251 6.46944 0.0
			CHANNELS 6 Xposition Yposition Zposition Zrotation Xrotation Yrotation 
			JOINT LowerLeg_R
			{
				OFFSET -39.0811 -0.00228153 -0.0401928
				CHANNELS 6 Xposition Yposition Zposition Zrotation Xrotation Yrotation 
				JOINT Foot_R
				{
					OFFSET -40.9854 0.0 0.0
					CHANNELS 6 Xposition Yposition Zposition Zrotation Xrotation Yrotation 
					JOINT Toes_R
					{
						OFFSET -11.7543 0.0 0.0
						CHANNELS 6 Xposition Yposition Zposition Zrotation Xrotation Yrotation 
						End Site
						{
							OFFSET 0.0 0.0 0.0
						}
					}
				}
			}
		}
	}
}
MOTION
Frames:	6
Frame Time:	0.0333333
0.000000 0.000000 0.000000 0.000000 0.000000 -0.000000 -1.025730 90.557300 1.769890 90.304500 -1.557300 10.553300 15.735700 0.000005 -0.000001 84.860400 81.959100 -84.436100 8.984550 -0.406207 -0.000000 8.258550 -1.432310 0.951373 16.377300 -0.000001 -0.000001 0.651736 -4.357850 3.496200 6.456720 -0.000001 -0.000000 -14.422700 -4.303480 6.387230 12.994200 -0.242716 4.980390 -91.676400 6.903460 -76.315300 5.348090 -0.000007 -0.000001 -59.217700 41.732100 -22.633100 24.328600 0.000019 0.000005 10.746300 22.195200 -26.675000 22.291600 -0.000001 0.000005 7.789730 5.334690 -0.923001 12.994500 -0.242716 -4.980390 88.576100 11.981700 -83.172200 -5.348130 -0.000001 -0.000004 -60.617400 33.833900 -13.823200 -24.328900 0.000322 -0.000009 1.473750 3.223990 -24.599900 -22.291500 -0.000108 -0.000004 13.732400 5.426250 -3.809230 -2.192480 -6.469440 -0.000000 -174.517000 -13.270900 1.794580 39.081100 -0.000007 -0.000012 -0.199704 0.336868 30.660900 40.985400 -0.000006 -0.000013 0.097406 6.267210 -71.474700 11.754300 -0.000000 0.000003 -0.000105 -0.001069 -16.618500 -2.192510 6.469440 -0.000001 171.853000 23.484400 -175.736000 -39.081100 -0.002282 -0.040193 -0.247224 0.429905 30.231700 -40.985400 0.000008 0.000006 2.971550 12.216300 -72.823900 -11.754300 -0.000006 -0.000006 -0.001535 -0.022734 -17.497500
0.000000 0.000000 0.000000 0.000000 0.000000 -0.000000 -1.060410 90.567500 1.647350 90.302700 -1.491060 10.717000 15.735700 0.000005 -0.000001 84.642300 81.833900 -84.232300 8.984550 -0.406207 -0.000000 8.502590 -1.515100 0.931896 16.377300 -0.000001 -0.000001 0.839850 -4.425090 3.433310 6.456720 -0.000001 -0.000000 -14.197900 -4.359500 6.557560 12.994200 -0.242716 4.980390 -91.690700 6.954140 -76.299500 5.348090 -0.000007 -0.000001 -58.321900 38.899400 -23.001000 24.328600 0.000019 0.000005 11.065300 22.361700 -27.204200 22.291600 -0.000001 0.000005 7.836110 5.333020 -0.873820 12.994500 -0.242716 -4.980390 88.545400 11.835200 -82.942300 -5.348130 -0.000001 -0.000004 -59.765400 32.042400 -14.087500 -24.328900 0.000322 -0.000009 1.013690 2.022840 -26.651400 -22.291500 -0.000108 -0.000004 14.732500 5.441580 -4.340310 -2.192480 -6.469440 -0.000000 -174.479000 -13.211200 1.870900 39.081100 -0.000007 -0.000012 -0.197993 0.333957 30.662800 40.985400 -0.000006 -0.000013 0.083022 6.278160 -71.387900 11.754300 -0.000000 0.000003 -0.000098 -0.001008 -16.616200 -2.192510 6.469440 -0.000001 171.826000 23.566700 -175.644000 -39.081100 -0.002282 -0.040193 -0.245244 0.426235 30.247600 -40.985400 0.000008 0.000006 3.032960 12.242800 -72.768900 -11.754300 -0.000006 -0.000006 -0.001634 -0.024034 -17.550400
0.000000 0.000000 0.000000 0.000000 0.000000 -0.000000 -1.115670 90.568700 1.479520 90.320600 -1.484450 10.861400 15.735700 0.000005 -0.000001 84.579300 81.721800 -84.197000 8.984550 -0.406207 -0.000000 8.723920 -1.553090 0.882407 16.377300 -0.000001 -0.000001 1.161920 -4.492310 3.358190 6.456720 -0.000001 -0.000000 -13.802000 -4.387070 6.706500 12.994200 -0.242716 4.980390 -91.705500 6.985390 -76.243000 5.348090 -0.000007 -0.000001 -56.535200 36.121000 -24.202100 24.328600 0.000019 0.000005 11.506000 22.328600 -28.182300 22.291600 -0.000001 0.000005 8.220830 5.327180 -0.703553 12.994500 -0.242716 -4.980390 88.509200 11.659000 -82.661800 -5.348130 -0.000001 -0.000004 -58.416000 30.332700 -14.917800 -24.328900 0.000322 -0.000009 0.850927 1.517650 -29.316200 -22.291500 -0.000108 -0.000004 15.564700 5.452350 -4.723280 -2.192480 -6.469440 -0.000000 -174.419000 -13.272800 1.852170 39.081100 -0.000007 -0.000012 -0.199727 0.335924 30.734300 40.985400 -0.000006 -0.000013 0.085911 6.392750 -71.284400 11.754300 -0.000000 0.000003 -0.000103 -0.001058 -16.618100 -2.192510 6.469440 -0.000001 171.848000 23.562300 -175.676000 -39.081100 -0.002282 -0.040193 -0.246272 0.426090 30.359200 -40.985400 0.000008 0.000006 3.096180 12.168500 -72.726300 -11.754300 -0.000006 -0.000006 -0.001586 -0.023411 -17.525100
0.000000 0.000000 0.000000 0.000000 0.000000 -0.000000 -1.152820 90.582500 1.277660 90.340100 -1.426750 11.002300 15.735700 0.000005 -0.000001 84.320100 81.654200 -83.957500 8.984550 -0.406207 -0.000000 8.851540 -1.640120 0.851581 16.377300 -0.000001 -0.000001 1.736860 -4.509440 3.312240 6.456720 -0.000001 -0.000000 -13.182100 -4.308510 6.688910 12.994200 -0.242716 4.980390 -91.703400 6.978240 -76.246000 5.348090 -0.000007 -0.000001 -54.605100 32.897400 -25.692800 24.328600 0.000019 0.000005 12.006200 22.094200 -29.484500 22.291600 -0.000001 0.000005 8.898700 5.326480 -0.683187 12.994500 -0.242716 -4.980390 88.483100 11.463300 -82.410200 -5.348130 -0.000001 -0.000004 -56.638500 28.671800 -16.288200 -24.328900 0.000322 -0.000009 0.767709 1.220610 -32.211400 -22.291500 -0.000108 -0.000004 16.690000 5.465340 -5.195480 -2.192480 -6.469440 -0.000000 -174.410000 -13.285100 1.835280 39.081100 -0.000007 -0.000012 -0.196715 0.330610 30.753200 40.985400 -0.000006 -0.000013 0.090515 6.429210 -71.143100 11.754300 -0.000000 0.000003 -0.000095 -0.000983 -16.615300 -2.192510 6.469440 -0.000001 171.813000 23.699400 -175.687000 -39.081100 -0.002282 -0.040193 -0.242900 0.419310 30.420000 -40.985400 0.000008 0.000006 3.183530 12.242100 -72.641200 -11.754300 -0.000006 -0.000006 -0.001675 -0.024573 -17.572300
0.000000 0.000000 0.000000 0.000000 0.000000 -0.000000 -1.200340 90.593900 1.084890 90.356700 -1.428240 11.176800 15.735700 0.000005 -0.000001 84.207100 81.620400 -83.854100 8.984550 -0.406207 -0.000000 8.915770 -1.679310 0.836295 16.377300 -0.000001 -0.000001 2.429730 -4.505430 3.254350 6.456720 -0.000001 -0.000000 -12.157400 -4.215520 6.614550 12.994200 -0.242716 4.980390 -91.678300 6.903580 -76.300600 5.348090 -0.000007 -0.000001 -52.774200 29.237000 -27.361700 24.328600 0.000019 0.000005 12.367400 21.329500 -31.083000 22.291600 -0.000001 0.000005 9.549900 5.323210 -0.588939 12.994500 -0.242716 -4.980390 88.473200 11.259200 -82.226200 -5.348130 -0.000001 -0.000004 -54.631300 26.739800 -18.033700 -24.328900 0.000322 -0.000009 0.738504 1.046730 -35.250600 -22.291500 -0.000108 -0.000004 17.876900 5.471970 -5.443050 -2.192480 -6.469440 -0.000000 -174.345000 -13.363000 1.866730 39.081100 -0.000007 -0.000012 -0.196909 0.330692 30.771900 40.985400 -0.000006 -0.000013 0.097342 6.545230 -71.005800 11.754300 -0.000000 0.000003 -0.000103 -0.001059 -16.618200 -2.192510 6.469440 -0.000001 171.825000 23.660700 -175.680000 -39.081100 -0.002282 -0.040193 -0.240610 0.414405 30.480600 -40.985400 0.000008 0.000006 3.248960 12.217500 -72.560400 -11.754300 -0.000006 -0.000006 -0.001605 -0.023658 -17.535100
0.000000 0.000000 0.000000 0.000000 0.000000 -0.000000 -1.241540 90.611100 0.864559 90.389200 -1.381600 11.347400 15.735700 0.000005 -0.000001 84.013200 81.609000 -83.663700 8.984550 -0.406207 -0.000000 8.932860 -1.737720 0.834222 16.377300 -0.000001 -0.000001 3.244590 -4.468580 3.245330 6.456720 -0.000001 -0.000000 -10.923000 -4.115890 6.482260 12.994200 -0.242716 4.980390 -91.628200 6.731710 -76.369400 5.348090 -0.000007 -0.000001 -51.016300 25.464100 -29.356400 24.328600 0.000019 0.000005 12.855300 20.634800 -32.925800 22.291600 -0.000001 0.000005 10.053200 5.325000 -0.639762 12.994500 -0.242716 -4.980390 88.484800 11.006100 -82.111700 -5.348130 -0.000001 -0.000004 -52.695800 24.266100 -20.034700 -24.328900 0.000322 -0.000009 0.702976 0.887470 -38.430200 -22.291500 -0.000108 -0.000004 18.937100 5.476020 -5.596410 -2.192480 -6.469440 -0.000000 -174.328000 -13.373900 1.868380 39.081100 -0.000007 -0.000012 -0.196424 0.329909 30.769300 40.985400 -0.000006 -0.000013 0.105212 6.634380 -70.831100 11.754300 -0.000000 0.000003 -0.000100 -0.001033 -16.617200 -2.192510 6.469440 -0.000001 171.779000 23.792400 -175.673000 -39.081100 -0.002282 -0.040193 -0.237861 0.408821 30.536500 -40.985400 0.000008 0.000006 3.343730 12.277200 -72.461900 -11.754300 -0.000006 -0.000006 -0.001529 -0.022658 -17.494500
